<svg xmlns="http://www.w3.org/2000/svg" width="64" height="64" fill="none"><g clip-path="url(#a)"><g clip-path="url(#b)"><g clip-path="url(#c)"><mask id="d" width="64" height="64" x="0" y="0" maskUnits="userSpaceOnUse" style="mask-type:alpha"><path fill="#D9D9D9" d="M0 0h64v64H0z"/></mask><g filter="url(#e)" mask="url(#d)"><path fill="#FFD366" d="M57.35 6.474c.905 11.269-7.943 22.373-19.764 24.802-11.82 2.43-22.136-4.735-23.04-16.004C13.64 4.004 22.49-7.101 34.31-9.53c11.82-2.43 22.136 4.736 23.04 16.004Z"/><path fill="#FF3278" d="M17.666 17.882C15.06 37.343 5.972 50.73-2.636 47.78c-8.608-2.949-13.475-21.116-10.87-40.578 2.603-19.462 11.693-32.848 20.3-29.9 8.609 2.95 13.476 21.117 10.872 40.579Z"/><path fill="#D014FF" d="M20.643 43.34c3.302 8.785.427 21.247-6.42 27.834-6.848 6.587-15.075 4.804-18.377-3.982-3.301-8.786-.426-21.248 6.421-27.835 6.848-6.587 15.075-4.804 18.376 3.982Z"/><path fill="#5D85FF" d="M25.975 68.896c-5.523 7.614-11.954 10.157-14.365 5.68-2.411-4.476.112-14.278 5.634-21.892 5.523-7.614 11.955-10.157 14.366-5.68 2.41 4.477-.112 14.278-5.635 21.892Z"/><path fill="#1FFFF4" d="M50.104 42.998c1.708 10.041-3.413 21.013-11.438 24.508C30.641 71 22.751 65.693 21.043 55.652c-1.707-10.04 3.413-21.013 11.438-24.508 8.025-3.494 15.915 1.813 17.623 11.854Z"/><path fill="#644DFF" d="M77 43.5C77 58.136 69.389 70 60 70S43 58.136 43 43.5 50.611 17 60 17s17 11.864 17 26.5Z"/></g></g><g filter="url(#f)" shape-rendering="crispEdges"><path fill="#fff" d="M27.114 31.713a10.388 10.388 0 0 1-1.41 4.833c-2.766 4.82-5.489 9.667-8.227 14.504-.287.509-.596.965-1.269.95-.631-.015-1.098-.411-1.18-1.045-.022-.176-.014-.357-.014-.535-.001-6.96-.035-13.922.007-20.882.041-6.753 2.947-11.9 8.671-15.338 2.507-1.506 5.266-2.185 8.192-2.2 4.2-.02 7.91 1.336 11.102 4.083 3.286 2.83 5.26 6.431 5.839 10.784.663 4.991-.55 9.479-3.717 13.35-2.84 3.47-6.502 5.523-10.925 6.147-2.883.407-5.661.007-8.363-1.043-.648-.252-.647-.274-.297-.887 1.233-2.16 2.445-4.335 3.7-6.483 2.296-3.93 6.966-5.37 11.033-3.426.24.114.442.247.638-.091.218-.375-.088-.45-.28-.586-2.703-1.905-4.192-4.512-4.427-7.854-.121-1.72.195-3.351.908-4.91.027-.058.063-.114.082-.175.066-.224.334-.452-.015-.671-.353-.222-.482.051-.632.283-.577.889-1.265 1.686-2.104 2.315-3.324 2.492-6.88 2.884-10.653 1.141-.179-.083-.369-.318-.588-.039-.23.293-.128.47.152.66 1.345.917 2.367 2.12 3.026 3.627.479 1.094.69 2.253.751 3.488Z"/><path stroke="#000" stroke-opacity=".12" stroke-width="2" d="M31.879 11c4.44-.021 8.384 1.42 11.759 4.325 3.47 2.988 5.568 6.812 6.178 11.41.698 5.255-.586 10.023-3.934 14.116-2.999 3.665-6.888 5.844-11.559 6.504-3.07.433-6.022.003-8.866-1.102a4.224 4.224 0 0 1-.488-.215c-.143-.078-.481-.283-.622-.715-.137-.419.004-.78.063-.918.067-.158.167-.331.244-.467 1.227-2.148 2.448-4.338 3.705-6.49 2.044-3.5 5.799-5.234 9.543-4.68-1.612-1.823-2.526-4.063-2.712-6.704-.065-.911-.017-1.8.137-2.668a8.385 8.385 0 0 1-.3.24c-1.782 1.335-3.669 2.138-5.651 2.352a10.38 10.38 0 0 1-3.293-.181c.474.608.874 1.28 1.196 2.016.541 1.236.77 2.523.834 3.841l.002.046-.002.046a11.39 11.39 0 0 1-1.542 5.288c-2.764 4.817-5.484 9.658-8.223 14.499-.144.254-.362.628-.696.925a2.074 2.074 0 0 1-1.467.531 2.231 2.231 0 0 1-1.431-.537 2.177 2.177 0 0 1-.717-1.38c-.033-.26-.023-.544-.023-.662-.002-6.954-.035-13.924.008-20.888.042-7.096 3.128-12.568 9.156-16.19 2.678-1.608 5.618-2.327 8.7-2.342Z"/></g></g></g><defs><clipPath id="a"><path fill="#fff" d="M0 0h64v64H0z"/></clipPath><clipPath id="b"><path fill="#fff" d="M0 0h64v64H0z"/></clipPath><clipPath id="c"><rect width="64" height="64" fill="#fff" rx="24"/></clipPath><filter id="e" width="139.209" height="147.889" x="-38.209" y="-47.103" color-interpolation-filters="sRGB" filterUnits="userSpaceOnUse"><feFlood flood-opacity="0" result="BackgroundImageFix"/><feBlend in="SourceGraphic" in2="BackgroundImageFix" result="shape"/><feGaussianBlur result="effect1_foregroundBlur_4_117" stdDeviation="12"/></filter><filter id="f" width="66" height="72" x="-1" y="3" color-interpolation-filters="sRGB" filterUnits="userSpaceOnUse"><feFlood flood-opacity="0" result="BackgroundImageFix"/><feColorMatrix in="SourceAlpha" result="hardAlpha" values="0 0 0 0 0 0 0 0 0 0 0 0 0 0 0 0 0 0 127 0"/><feOffset dy="7"/><feGaussianBlur stdDeviation="7"/><feComposite in2="hardAlpha" operator="out"/><feColorMatrix values="0 0 0 0 0 0 0 0 0 0 0 0 0 0 0 0 0 0 0.15 0"/><feBlend in2="BackgroundImageFix" result="effect1_dropShadow_4_117"/><feBlend in="SourceGraphic" in2="effect1_dropShadow_4_117" result="shape"/></filter></defs></svg>